# xmcd CD database file
# Generated: Thu Dec  6 23:57:36 2001 by WSPse's MP3c
#
# Track frame offsets:
#       150
#       10787
#       27425
#       43887
#       58687
#       77850
#       88512
#       102375
#       118575
#       130737
#       142575
#       158700
#
# Disc length: 2308 seconds
#
# Revision: 1
# Processed by: cddbd v1.4PL0 Copyright (c) Steve Scherf et al.
# Submitted via: MP3c 0.27
#   WSPse mp3c-0.27 (NLS) - ENGLISH (Nov 29 2001)
#
DISCID=9309020c
DTITLE=Various Artist - Country Legends/The Working Man
DYEAR=1900
DGENRE=
TTITLE0=Rise And Shine
TTITLE1=Get A Little Dirt On Your Hands
TTITLE2=Life Has It's Little Ups And Downs
TTITLE3=Working Class Man
TTITLE4=I Wish A Buck Was Still Silver
TTITLE5=Let's Hear It For The Working Man
TTITLE6=Oney
TTITLE7=American Farmer
TTITLE8=Sixteen Tons
TTITLE9=Take This Job And Shove It
TTITLE10=Hard Workin' Hands
TTITLE11=The Carpenter
EXTD=
EXTT0=Tommy Cash
EXTT1=David Allan Coe With Bill Anderson
EXTT2=Charlie Rich
EXTT3=Lacy J. Dalton
EXTT4=Are The Good Times Really Over
EXTT5=Moe Bandy And Joe Stampley
EXTT6=Johnny Cash
EXTT7=The Charlie Daniels Band
EXTT8=Jimmy Dean
EXTT9=Johnny Paycheck
EXTT10=Larry Gatlin And The Gatlin Brothers Band
EXTT11=John Conlee
PLAYORDER=
